<?xml version="1.0" standalone="no"?><!DOCTYPE svg PUBLIC "-//W3C//DTD SVG 1.1//EN" "http://www.w3.org/Graphics/SVG/1.1/DTD/svg11.dtd"><svg t="1545101402622" class="icon" style="" viewBox="0 0 1024 1024" version="1.1" xmlns="http://www.w3.org/2000/svg" p-id="4602" xmlns:xlink="http://www.w3.org/1999/xlink" width="200" height="200"><defs><style type="text/css"></style></defs><path d="M512 63.8C264.9 63.8 63.8 264.9 63.8 512S264.9 960.2 512 960.2 960.2 759.1 960.2 512 759.1 63.8 512 63.8z m0 887.5C269.8 951.3 72.7 754.2 72.7 512S269.8 72.7 512 72.7 951.3 269.8 951.3 512 754.2 951.3 512 951.3z" fill="#C2C2C2" p-id="4603"></path><path d="M702.1 729.4H562.9c-3.7 0.3-6.4 3.5-6.1 7.2 0.3 3.3 2.9 5.9 6.1 6.1h139.2c3.7-0.3 6.4-3.5 6.1-7.2-0.2-3.2-2.8-5.8-6.1-6.1zM714.9 676.2h-49.8c-3.7-0.3-6.9 2.5-7.1 6.2-0.3 3.7 2.5 6.9 6.2 7.1H714c3.7 0.3 6.9-2.5 7.1-6.2 0.2-3.7-2.5-6.8-6.2-7.1zM576.4 702.9H398.9c-3.7-0.3-6.9 2.5-7.2 6.1-0.3 3.7 2.5 6.9 6.1 7.2h178.4c3.7 0.3 6.9-2.5 7.2-6.1s-2.5-6.9-6.1-7.2c-0.3-0.1-0.6-0.1-0.9 0zM771.7 729.4h-30.5c-3.7 0.3-6.4 3.5-6.1 7.2 0.3 3.3 2.9 5.9 6.1 6.1h30.5c3.7-0.3 6.4-3.5 6.1-7.2-0.2-3.2-2.8-5.8-6.1-6.1zM308.9 682.3c-0.3 3.7 2.5 6.9 6.2 7.1h63.1c3.7 0 6.7-3 6.7-6.7s-5.9-7.6-9.5-7.6l2.9 1H316c-3.7-0.2-6.9 2.6-7.1 6.2zM269.1 689.5h21c3.7 0.3 6.9-2.5 7.1-6.2 0.3-3.7-2.5-6.9-6.2-7.1h-21c-3.7-0.3-6.9 2.5-7.1 6.2s2.6 6.8 6.2 7.1zM442.2 756.2H252.3c-3.6 0-6.6 2.9-6.6 6.6 0 3.6 2.9 6.6 6.6 6.6h189.9c3.6 0 6.6-2.9 6.6-6.6-0.1-3.6-3-6.6-6.6-6.6zM512 756.2h-30.6c-3.6 0-6.6 2.9-6.6 6.6 0 3.6 2.9 6.6 6.6 6.6H512c3.6 0 6.6-2.9 6.6-6.6 0-3.6-3-6.6-6.6-6.6zM507.6 656.2c113.8 0 206.3-92.6 206.3-206.3s-92.6-206.3-206.3-206.3-206.3 92.6-206.3 206.3 92.5 206.3 206.3 206.3z m-91.1-37.7c-11.3-6.5-21.9-14.1-31.8-22.9V449.7h31.8v168.8z m215.6-22.9c-9.8 8.8-20.4 16.4-31.8 22.9V449.7h31.8v145.9zM507.6 256.8c106.4 0 193 86.6 193 193 0 52.5-21.1 100.1-55.2 134.9v-135h10.2c2.5 0 4.4-2 4.4-4.4v-14.6c0-2.5-2-4.4-4.4-4.4h-78.8c-2.5 0-4.4 2-4.4 4.4v14.6c0 2.5 2 4.4 4.4 4.4H587v176c-24.3 11-51.2 17.2-79.5 17.2-27.7 0-54-5.9-77.8-16.4V449.7h9c2.5 0 4.4-2 4.4-4.4v-14.6c0-2.5-2-4.4-4.4-4.4H360c-2.5 0-4.4 2-4.4 4.4v14.6c0 2.5 2 4.4 4.4 4.4h11.4v136.9c-35.1-35-56.9-83.3-56.9-136.7 0-106.5 86.6-193.1 193.1-193.1z" fill="#C2C2C2" p-id="4604"></path><path d="M476.6 557.4h64.1c2.5 0 4.4-2 4.4-4.4v-11.9c0-2.5-2-4.4-4.4-4.4h-64.1c-2.5 0-4.4 2-4.4 4.4V553c0 2.4 2 4.4 4.4 4.4z" fill="#C2C2C2" p-id="4605"></path></svg>