<?xml version="1.0" standalone="no"?><!DOCTYPE svg PUBLIC "-//W3C//DTD SVG 1.1//EN" "http://www.w3.org/Graphics/SVG/1.1/DTD/svg11.dtd"><svg t="1545100856724" class="icon" style="" viewBox="0 0 1024 1024" version="1.1" xmlns="http://www.w3.org/2000/svg" p-id="4427" xmlns:xlink="http://www.w3.org/1999/xlink" width="200" height="200"><defs><style type="text/css"></style></defs><path d="M928.4 686.2L807.9 577.9c-17.1-15.4-39.2-23.9-62.2-23.9-18.6 0-36.5 5.5-51.9 15.8l-72.5 48.8C519.4 572.2 449.9 501 414.4 406.7l44.8-49.6c30.2-33.4 32.2-83.6 4.9-119.4L360 101.5c-17.5-22.9-45.2-36.7-74-36.7-19.8 0-38.7 6.2-54.8 17.8l-0.6 0.4-0.6 0.4-133.3 101-32.1 24.3 3.6 40.1c0.6 6.5 75.8 650.4 698.3 707l35.1 3.2 24.2-25.5 107.9-113.6c17.3-18.4 26.6-43.1 25.6-68.2-1.1-24.8-12.3-48.7-30.9-65.5zM881 770L773.1 883.6c-552.6-50.3-629.8-611.3-632.5-641.2l133.3-101c3.6-2.6 7.8-3.9 12-3.9 6.2 0 12.2 2.8 16.3 8.1l104 136.2c6.1 8 5.6 19.2-1.1 26.6L333.2 388l2.7 13.6C403.2 626.8 602 686.5 612.8 694.7l13.5 8.2 108-72.7c3.5-2.3 7.4-3.5 11.4-3.5 4.9 0 9.8 1.8 13.6 5.2l120.5 108.4c8.6 7.8 9.2 21.3 1.2 29.7z" fill="#20AB14" p-id="4428"></path></svg>