<?xml version="1.0" standalone="no"?><!DOCTYPE svg PUBLIC "-//W3C//DTD SVG 1.1//EN" "http://www.w3.org/Graphics/SVG/1.1/DTD/svg11.dtd"><svg t="1544679424825" class="icon" style="" viewBox="0 0 1024 1024" version="1.1" xmlns="http://www.w3.org/2000/svg" p-id="12985" xmlns:xlink="http://www.w3.org/1999/xlink" width="200" height="200"><defs><style type="text/css"></style></defs><path d="M752.948 412.409v0l-271.108 272.881c-6.706 6.744-15.964 10.923-26.197 10.923s-19.498-4.179-26.204-10.923v0l-147.595-135.633c-6.706-6.745-10.853-16.066-10.853-26.361 0-20.593 16.591-37.285 37.057-37.285 10.227 0 19.491 4.173 26.198 10.917v0l121.398 109.265 244.904-246.512c6.707-6.751 15.971-10.923 26.204-10.923 20.46 0 37.052 16.692 37.052 37.284-0.001 10.297-4.15 19.618-10.856 26.369z" p-id="12986"></path><path d="M510.913 63.445c-247.103 0-447.42 200.317-447.42 447.419 0 247.101 200.317 447.419 447.42 447.419 247.101 0 447.419-200.318 447.419-447.419 0-247.102-200.318-447.419-447.419-447.419zM510.913 893.441c-211.292 0-382.576-171.285-382.576-382.576 0-211.292 171.284-382.576 382.576-382.576 211.291 0 382.575 171.284 382.575 382.576 0.001 211.291-171.284 382.576-382.575 382.576z" p-id="12987"></path></svg>