<?xml version="1.0" standalone="no"?><!DOCTYPE svg PUBLIC "-//W3C//DTD SVG 1.1//EN" "http://www.w3.org/Graphics/SVG/1.1/DTD/svg11.dtd"><svg t="1545100484310" class="icon" style="" viewBox="0 0 1024 1024" version="1.1" xmlns="http://www.w3.org/2000/svg" p-id="4318" xmlns:xlink="http://www.w3.org/1999/xlink" width="200" height="200"><defs><style type="text/css"></style></defs><path d="M512 135.5c-207.9 0-376.5 168.6-376.5 376.5S304.1 888.5 512 888.5 888.5 719.9 888.5 512 719.9 135.5 512 135.5z m229.1 233.7h-0.9c-0.6 1.9-1.5 3.8-2.5 5.5l-223 356.6H398.6l-37.4-329c-0.5-10.3-3.8-20.2-9.6-28.7-5.8-6.7-14-11-22.8-12.1l4.8-13.2h105.7c9.2-0.8 18.3 2.1 25.3 8 6.4 7.5 10 16.9 10.3 26.7l20.7 228 116.1-219.5c1.1-1.6 2.1-3.3 3-5 0.7-1.8 1.1-3.8 1.1-5.7 0.1-4.9-2.2-9.5-6.2-12.3-5.2-3.9-11.3-6.3-17.8-7.1l4.1-13.2h120.3c6.5-0.4 13 1 18.7 4.1 4.1 2.1 6.8 6.3 6.8 11 0.1 1.9-0.1 3.9-0.6 5.9z" fill="#F6B64D" p-id="4319"></path></svg>